<svg xmlns="http://www.w3.org/2000/svg" width="1131" height="313" viewBox="0 0 1131 313" version="1.1"><path d="M 308.935 112.243 C 305.625 124.535, 312.644 138.254, 327.224 147.990 L 333.388 152.107 334.924 149.303 C 337.272 145.017, 337.036 131.583, 334.523 126.500 C 331.678 120.745, 324.815 114.491, 317.530 111.014 C 314.056 109.356, 310.958 108, 310.646 108 C 310.333 108, 309.563 109.909, 308.935 112.243 M 508.411 121.497 C 507.425 125.425, 508.430 133.001, 510.533 137.500 C 512.575 141.868, 521.973 151.652, 526.315 153.930 C 528.241 154.940, 529.352 155.048, 530.105 154.295 C 531.822 152.578, 532.395 141.728, 530.993 137.480 C 528.815 130.878, 518.988 121.950, 511.283 119.571 C 509.465 119.009, 508.949 119.355, 508.411 121.497" stroke="none" fill="#d37771" fill-rule="evenodd"/><path d="M 332.521 1.083 C 331.502 3.740, 332.447 84.988, 333.500 85.250 C 334.859 85.590, 335.396 1.996, 334.044 0.644 C 333.406 0.006, 332.876 0.159, 332.521 1.083 M 351.521 1.083 C 350.502 3.740, 351.447 84.988, 352.500 85.250 C 353.859 85.590, 354.396 1.996, 353.044 0.644 C 352.406 0.006, 351.876 0.159, 351.521 1.083 M 314.481 27.188 C 314.195 27.934, 314.082 38.884, 314.231 51.522 C 314.461 71.160, 314.718 74.500, 316 74.500 C 317.292 74.500, 317.500 71.176, 317.500 50.583 C 317.500 32.344, 317.203 26.568, 316.251 26.250 C 315.563 26.021, 314.767 26.443, 314.481 27.188 M 367.481 27.188 C 367.195 27.934, 367.082 38.884, 367.231 51.522 C 367.461 71.160, 367.718 74.500, 369 74.500 C 370.292 74.500, 370.500 71.176, 370.500 50.583 C 370.500 32.344, 370.203 26.568, 369.251 26.250 C 368.563 26.021, 367.767 26.443, 367.481 27.188 M 310.219 78.750 C 308.775 82.265, 309.602 91.465, 311.802 96.362 C 314.091 101.456, 324.237 112.138, 329.769 115.277 C 332.855 117.028, 332.919 117.021, 334.151 114.777 C 334.839 113.525, 335.423 109.125, 335.451 105 C 335.493 98.563, 335.109 96.835, 332.744 92.812 C 329.708 87.646, 323.766 82.383, 317.290 79.121 C 312.177 76.545, 311.146 76.491, 310.219 78.750 M 363.340 88.014 C 354.673 93.677, 344.405 104.927, 340.628 112.898 C 337.756 118.961, 337.504 120.317, 337.550 129.500 C 337.592 137.926, 338.006 140.464, 340.178 145.623 L 342.756 151.745 332.785 152.879 C 305.344 156, 283.592 170.827, 271.127 194.911 C 264.722 207.288, 262.839 214.674, 262.255 229.723 C 261.629 245.831, 263.860 257.279, 270.013 269.526 C 272.182 273.844, 273.854 277.458, 273.728 277.557 C 273.603 277.656, 269.252 279.291, 264.060 281.189 C 258.868 283.088, 254.443 285.172, 254.226 285.821 C 253.723 287.331, 261.131 287.379, 271.528 285.933 L 279.201 284.866 285.850 291.244 C 297.636 302.549, 306.623 307.514, 321.903 311.163 C 329.202 312.906, 332.614 313.137, 344.500 312.695 C 360.169 312.113, 366.924 310.609, 377.365 305.379 C 396.390 295.848, 411.375 277.709, 418.157 256 C 420.179 249.526, 420.499 246.447, 420.491 233.500 C 420.481 216.310, 419.244 210.267, 413.122 197.500 C 401.677 173.631, 377.960 155.847, 354.275 153.371 L 348.468 152.764 354.810 146.297 C 372.182 128.579, 378.938 108.155, 373.008 91.283 C 371.913 88.167, 370.660 85.260, 370.225 84.825 C 369.789 84.389, 366.691 85.825, 363.340 88.014 M 453 207 L 453 313 463.500 313 L 474 313 474 207 L 474 101 463.500 101 L 453 101 453 207 M 28.606 108.750 C 27.747 113.017, -0 309.580, -0 311.394 C -0 312.764, 1.503 313, 10.250 312.997 L 20.500 312.995 27.836 258.247 C 31.871 228.136, 36.317 195.111, 37.717 184.858 L 40.262 166.216 76.842 239.608 L 113.422 313 116.563 313 C 119.480 313, 119.936 312.497, 122.955 305.948 C 124.742 302.069, 140.897 269.197, 158.853 232.898 L 191.500 166.901 201.454 239.951 L 211.407 313 222.283 313 L 233.159 313 232.600 310.250 C 232.292 308.738, 225.741 263.625, 218.041 210 C 210.341 156.375, 203.781 111.010, 203.463 109.188 C 202.996 106.507, 202.478 105.935, 200.743 106.188 C 198.976 106.445, 191.397 121.207, 157.550 190.322 L 116.500 274.144 74.821 190.072 C 40.448 120.738, 32.793 106, 31.150 106 C 29.779 106, 28.987 106.856, 28.606 108.750 M 806.810 153.043 C 781.052 156.047, 758.495 172.293, 746.472 196.500 C 739.784 209.965, 738.519 215.843, 738.509 233.500 C 738.501 246.447, 738.821 249.526, 740.843 256 C 749.219 282.811, 769.808 303.728, 794.500 310.510 C 797.846 311.429, 806.286 312.400, 813.581 312.704 C 839.135 313.770, 856.314 307.608, 872.615 291.529 C 884.543 279.764, 892.047 266.365, 895.517 250.633 C 896.861 244.544, 897.146 239.797, 896.778 229.633 C 896.366 218.243, 895.876 215.239, 893.092 207 C 888.957 194.764, 882.477 184.405, 873.038 174.942 C 860.348 162.218, 845.554 155.116, 827.410 153.037 C 817.591 151.912, 816.503 151.913, 806.810 153.043 M 624 157.548 C 612.897 159.573, 605.552 162.426, 598.658 167.390 C 584.611 177.505, 577.718 187.532, 574.032 203.215 C 570.514 218.186, 570.121 226.151, 570.725 270.250 L 571.311 313 581.032 313 L 590.752 313 591.276 270.750 C 592.083 205.672, 593.886 196.657, 608.058 186.852 C 618.080 179.918, 623.503 178.500, 640 178.500 C 656.461 178.500, 663.312 180.073, 670.423 185.486 C 675.042 189.001, 680.378 198.580, 682.130 206.500 C 682.819 209.614, 683.413 230.644, 683.704 262.250 L 684.172 313 694.156 313 L 704.140 313 703.715 259.750 C 703.242 200.589, 703.069 198.802, 696.497 185.368 C 690.006 172.102, 674.754 160.917, 658.500 157.504 C 649.896 155.698, 634.031 155.718, 624 157.548 M 511 236.500 L 511 313 521 313 L 531 313 531 236.500 L 531 160 521 160 L 511 160 511 236.500 M 326.112 174.581 C 317.127 176.997, 309.005 181.979, 300.862 190.067 C 294.845 196.044, 292.371 199.441, 289.202 206.077 C 286.990 210.710, 284.690 216.885, 284.090 219.799 C 282.526 227.405, 282.747 241.600, 284.539 248.540 C 286.330 255.478, 291.485 267, 292.798 267 C 294.626 267, 306.680 257.110, 312.687 250.682 C 320.218 242.623, 325.778 233.442, 330.357 221.500 C 333.986 212.035, 337.428 197.593, 338.458 187.500 C 338.795 184.200, 339.308 179.588, 339.597 177.250 L 340.123 173 335.811 173.066 C 333.440 173.102, 329.076 173.784, 326.112 174.581 M 343 186.369 C 343 193.728, 342.330 203.582, 341.509 208.290 C 336.713 235.788, 322.798 260.631, 305.530 272.524 C 302.488 274.619, 300.017 276.595, 300.038 276.916 C 300.120 278.180, 309.295 284.668, 315.231 287.660 C 321.998 291.071, 334.133 294, 341.500 294 C 359.075 294, 377.109 285.212, 387.389 271.636 C 399.411 255.762, 403.213 233.068, 397.081 213.794 C 394.351 205.215, 386.509 193.492, 379.209 187.076 C 369.983 178.969, 356.306 173.042, 346.750 173.012 L 343 173 343 186.369 M 802.568 174.532 C 789.534 178.109, 777.330 187.238, 769.068 199.591 C 762.714 209.090, 759.935 217.749, 759.265 230.127 C 758.292 248.125, 763.782 263.431, 775.769 276.138 C 794.894 296.411, 827.591 299.565, 851.227 283.415 C 862.294 275.853, 870.685 263.262, 874.468 248.540 C 876.427 240.920, 876.435 226.130, 874.485 218.460 C 869.194 197.647, 851.933 179.604, 832.458 174.531 C 825.262 172.657, 809.400 172.657, 802.568 174.532 M 968.250 244.519 C 945.554 278.113, 945 279.053, 945 283.966 L 945 289 969 289 L 993 289 993 300.500 L 993 312 998.500 312 L 1004 312 1004 300.500 L 1004 289 1010 289 L 1016 289 1016 283.500 L 1016 278 1010 278 L 1004 278 1004 266.500 L 1004 255 998.500 255 L 993 255 993 266.500 L 993 278 977 278 C 968.200 278, 961 277.815, 961 277.589 C 961 277.363, 970.675 262.310, 982.500 244.138 C 994.325 225.967, 1004 210.852, 1004 210.549 C 1004 210.247, 1001.188 210.024, 997.750 210.053 L 991.500 210.105 968.250 244.519 M 1085.698 211.444 C 1076.194 214.834, 1068.604 223.421, 1064.801 235.087 C 1061.894 244.004, 1061.090 271.028, 1063.405 281.976 C 1066.400 296.133, 1072.376 305.033, 1082.174 309.929 C 1087.188 312.435, 1089.546 313, 1094.982 313 C 1104.307 313, 1110.078 310.748, 1116.870 304.460 C 1123.078 298.712, 1127.203 291.497, 1129.239 282.824 C 1131.165 274.621, 1130.762 248.027, 1128.590 240 C 1124.813 226.038, 1116.100 214.926, 1106.316 211.592 C 1100.660 209.665, 1090.882 209.595, 1085.698 211.444 M 1090.788 221.163 C 1085.572 222.593, 1078.668 229.017, 1076.225 234.712 C 1073.084 242.037, 1071.626 254.643, 1072.325 268.441 C 1072.661 275.073, 1073.394 282.091, 1073.955 284.035 C 1075.594 289.714, 1080.561 296.681, 1085.124 299.700 C 1088.691 302.061, 1090.395 302.500, 1096 302.500 C 1101.577 302.500, 1103.315 302.057, 1106.804 299.749 C 1115.498 293.995, 1120.010 281.005, 1119.985 261.803 C 1119.969 249.273, 1118.314 240.526, 1114.556 233.111 C 1109.620 223.371, 1100.133 218.601, 1090.788 221.163 M 1034.756 296.977 C 1029.961 300.749, 1030.745 308.782, 1036.181 311.594 C 1042.168 314.689, 1049 310.279, 1049 303.320 C 1049 296.212, 1040.526 292.439, 1034.756 296.977" stroke="none" fill="#ffffff" fill-rule="evenodd"/></svg>